<?xml version="1.0" encoding="utf-8"?>
<!-- Generator: Adobe Illustrator 27.0.0, SVG Export Plug-In . SVG Version: 6.00 Build 0)  -->
<svg version="1.1" id="Capa_1" xmlns="http://www.w3.org/2000/svg" xmlns:xlink="http://www.w3.org/1999/xlink" x="0px" y="0px"
	 viewBox="0 0 551 543.4" style="enable-background:new 0 0 551 543.4;" xml:space="preserve">
<style type="text/css">
	.st0{fill:#FFFFFF;}
</style>
<g>
	<g>
		<path class="st0" d="M53.1,270.2c0-122.8,99.9-222.7,222.7-222.7V5.5C129.8,5.5,11.1,124.2,11.1,270.2s118.7,264.6,264.6,264.6
			v-41.9C153,492.9,53.1,393,53.1,270.2z"/>
		<path class="st0" d="M540.4,270.2c0-145.9-118.7-264.6-264.6-264.6v41.9c122.8,0,222.7,99.9,222.7,222.7s-99.9,222.7-222.7,222.7
			v41.9C421.7,534.8,540.4,416.1,540.4,270.2z"/>
	</g>
	<polygon class="st0" points="197.8,208.9 127,331.5 158.9,331.5 198.3,263.2 239.5,331.5 267.7,331.5 267.7,330.1 	"/>
	<polygon class="st0" points="304.3,285.6 367.6,285.6 367.6,331.3 394.8,331.3 394.8,213.3 367.6,213.3 367.6,258.4 304.3,258.4 
		304.3,213.3 277.1,213.3 277.1,331.3 304.3,331.3 	"/>
	<polygon class="st0" points="275.8,269.4 275.8,271 276.7,271 	"/>
</g>
</svg>
