<?xml version="1.0" encoding="utf-8"?>
<!-- Generator: Adobe Illustrator 27.0.0, SVG Export Plug-In . SVG Version: 6.00 Build 0)  -->
<svg version="1.1" id="Capa_1" xmlns="http://www.w3.org/2000/svg" xmlns:xlink="http://www.w3.org/1999/xlink" x="0px" y="0px"
	 viewBox="0 0 595.3 590.2" style="enable-background:new 0 0 595.3 590.2;" xml:space="preserve">
<style type="text/css">
	.st0{fill:#FFFFFF;}
</style>
<g>
	<g>
		<path class="st0" d="M64.9,295.1C64.9,167,169.2,62.8,297.3,62.8V19C145,19,21.2,142.9,21.2,295.1S145,571.2,297.3,571.2v-43.8
			C169.2,527.5,64.9,423.2,64.9,295.1z"/>
		<path class="st0" d="M573.4,295.1C573.4,142.9,449.5,19,297.3,19v43.8c128.1,0,232.4,104.2,232.4,232.4S425.4,527.5,297.3,527.5
			v43.8C449.5,571.2,573.4,447.4,573.4,295.1z"/>
	</g>
	<polygon class="st0" points="215.9,231.2 142.1,359 175.4,359 216.5,287.8 259.4,359 288.9,359 288.9,357.6 	"/>
	<polygon class="st0" points="327.1,311.2 393.1,311.2 393.1,358.8 421.5,358.8 421.5,235.8 393.1,235.8 393.1,282.8 327.1,282.8 
		327.1,235.8 298.7,235.8 298.7,358.8 327.1,358.8 	"/>
	<polygon class="st0" points="297.3,294.3 297.3,295.9 298.2,295.9 	"/>
</g>
</svg>
