<?xml version="1.0" encoding="utf-8"?>
<!-- Generator: Adobe Illustrator 27.0.0, SVG Export Plug-In . SVG Version: 6.00 Build 0)  -->
<svg version="1.1" id="Capa_1" xmlns="http://www.w3.org/2000/svg" xmlns:xlink="http://www.w3.org/1999/xlink" x="0px" y="0px"
	 viewBox="0 0 85.4 47.4" style="enable-background:new 0 0 85.4 47.4;" xml:space="preserve">
<style type="text/css">
	.st0{fill:#4D5858;}
	.st1{fill:#FF8300;}
</style>
<g>
	<polygon class="st0" points="21,24.9 21,30 12.9,30 12.9,24.9 10.8,24.9 10.8,37.1 12.9,37.1 12.9,32.1 21,32.1 21,37.1 23.1,37.1 
		23.1,24.9 	"/>
	<polygon class="st0" points="58.5,36.9 51.6,25.1 51.5,24.9 51.4,25.1 44.6,36.9 44.4,37.2 46.8,37.2 51.5,29 56.2,37.2 58.3,37.2 
		58.6,37.2 	"/>
	<path class="st1" d="M33.2,21c-0.1,0.1-0.3,0.2-0.6,0.3c-0.2,0.1-0.5,0.2-0.9,0.3c-0.3,0.1-0.7,0.2-1.1,0.3
		C30.3,22,29.8,22,29.4,22c-1,0-1.8-0.2-2.6-0.5c-0.8-0.3-1.4-0.8-1.9-1.3c-0.5-0.6-0.9-1.2-1.2-2c-0.3-0.8-0.4-1.5-0.4-2.4
		c0-0.9,0.2-1.8,0.5-2.5c0.3-0.8,0.8-1.5,1.4-2c0.6-0.6,1.2-1,2-1.3c0.8-0.3,1.6-0.5,2.5-0.5c0.3,0,0.7,0,1,0.1
		c0.3,0.1,0.7,0.1,1,0.2c0.3,0.1,0.6,0.2,0.8,0.3c0.2,0.1,0.4,0.2,0.5,0.3c-0.1,0.2-0.2,0.3-0.2,0.4c-0.1,0.1-0.1,0.2-0.2,0.3
		c-0.1,0.1-0.1,0.2-0.2,0.4c-0.1,0.1-0.2,0.3-0.3,0.6c-0.1-0.1-0.3-0.2-0.5-0.2c-0.2-0.1-0.4-0.1-0.6-0.2c-0.2,0-0.4-0.1-0.6-0.1
		c-0.2,0-0.4,0-0.6,0c-0.6,0-1.2,0.1-1.7,0.4c-0.5,0.2-1,0.5-1.4,0.9c-0.4,0.4-0.7,0.8-0.9,1.4c-0.2,0.5-0.3,1-0.3,1.6
		c0,0.5,0.1,1.1,0.3,1.6c0.2,0.5,0.5,1,0.9,1.4c0.4,0.4,0.8,0.7,1.3,0.9c0.5,0.2,1.1,0.4,1.7,0.4c0.4,0,0.7,0,1-0.1
		c0.3-0.1,0.6-0.2,0.9-0.2c0.3-0.1,0.5-0.2,0.6-0.3c0.2-0.1,0.2-0.2,0.3-0.2L33.2,21z"/>
	<path class="st1" d="M35.1,21.9V9.6h8.1v1.9h-6.1v3.3h5.4v1.9h-5.4V20h6.3v1.9H35.1z"/>
	<path class="st1" d="M45.6,21.9V9.6h3.5c0.7,0,1.3,0.1,1.8,0.3c0.6,0.2,1,0.4,1.4,0.8c0.4,0.3,0.7,0.8,0.9,1.2
		c0.2,0.5,0.3,1,0.3,1.7c0,0.3,0,0.7-0.1,1c-0.1,0.3-0.2,0.7-0.3,1c-0.1,0.3-0.3,0.6-0.6,0.9c-0.2,0.3-0.5,0.5-0.8,0.7
		c0.2,0.4,0.5,0.8,0.7,1.2c0.2,0.4,0.5,0.8,0.7,1.1c0.2,0.4,0.5,0.8,0.7,1.2c0.3,0.4,0.5,0.8,0.8,1.3h-2.5c-0.5-0.8-1-1.5-1.4-2.2
		c-0.4-0.7-0.9-1.4-1.3-2h-0.2h-1.7v4.2H45.6z M47.7,15.7h1.6c0.4,0,0.8-0.1,1.1-0.2c0.3-0.1,0.5-0.3,0.7-0.5
		c0.2-0.2,0.3-0.4,0.4-0.7c0.1-0.2,0.1-0.5,0.1-0.7c0-0.2,0-0.4-0.1-0.6c-0.1-0.2-0.2-0.5-0.3-0.7c-0.2-0.2-0.4-0.4-0.7-0.5
		c-0.3-0.1-0.6-0.2-1.1-0.2h-1.7V15.7z"/>
	<path class="st1" d="M54.8,15.8c0-0.9,0.2-1.7,0.5-2.4c0.3-0.8,0.8-1.4,1.3-2c0.6-0.6,1.2-1,2-1.4c0.8-0.3,1.6-0.5,2.4-0.5
		c0.9,0,1.7,0.2,2.4,0.5c0.8,0.3,1.4,0.8,2,1.4c0.6,0.6,1,1.2,1.4,2c0.3,0.8,0.5,1.6,0.5,2.4c0,0.9-0.2,1.7-0.5,2.4
		c-0.3,0.8-0.8,1.4-1.4,2c-0.6,0.6-1.2,1-2,1.3c-0.8,0.3-1.6,0.5-2.4,0.5c-0.9,0-1.7-0.2-2.4-0.5c-0.8-0.3-1.4-0.8-2-1.3
		c-0.6-0.6-1-1.2-1.3-2C55,17.4,54.8,16.6,54.8,15.8z M56.9,15.8c0,0.6,0.1,1.2,0.3,1.7c0.2,0.5,0.5,1,0.9,1.4
		c0.4,0.4,0.8,0.7,1.3,0.9c0.5,0.2,1.1,0.3,1.7,0.3c0.6,0,1.1-0.1,1.6-0.3c0.5-0.2,1-0.5,1.3-0.9c0.4-0.4,0.7-0.8,0.9-1.4
		c0.2-0.5,0.3-1.1,0.3-1.7c0-0.6-0.1-1.2-0.3-1.7c-0.2-0.5-0.5-1-0.9-1.4c-0.4-0.4-0.8-0.7-1.3-0.9c-0.5-0.2-1.1-0.3-1.6-0.3
		c-0.6,0-1.1,0.1-1.6,0.3c-0.5,0.2-1,0.5-1.3,0.9c-0.4,0.4-0.7,0.8-0.9,1.4C57,14.6,56.9,15.2,56.9,15.8z"/>
	<path class="st1" d="M75.8,10.3L75.1,12c-0.5-0.2-0.9-0.3-1.4-0.4c-0.5-0.1-0.9-0.2-1.3-0.2c-0.7,0-1.2,0.1-1.6,0.4
		c-0.4,0.3-0.6,0.6-0.6,1c0,0.4,0.1,0.6,0.4,0.9c0.3,0.2,0.7,0.4,1.1,0.6c0.4,0.2,0.9,0.4,1.5,0.5c0.5,0.2,1,0.4,1.5,0.7
		c0.4,0.3,0.8,0.7,1.1,1.1c0.3,0.4,0.4,1,0.4,1.7c0,0.5-0.1,1-0.3,1.5c-0.2,0.4-0.5,0.8-0.9,1.1c-0.4,0.3-0.9,0.6-1.5,0.7
		C73,21.9,72.3,22,71.5,22c-0.5,0-0.9,0-1.3-0.1c-0.4-0.1-0.8-0.2-1.1-0.3c-0.3-0.1-0.6-0.2-0.8-0.3c-0.2-0.1-0.5-0.2-0.6-0.3
		l0.9-1.8c0.5,0.3,1,0.5,1.5,0.6c0.5,0.1,1,0.2,1.4,0.2c0.2,0,0.5,0,0.8-0.1c0.3,0,0.6-0.1,0.9-0.3c0.3-0.1,0.6-0.3,0.8-0.5
		c0.2-0.2,0.3-0.5,0.3-0.8c0-0.4-0.1-0.7-0.4-1c-0.3-0.3-0.7-0.5-1.1-0.7c-0.4-0.2-0.9-0.4-1.5-0.6c-0.5-0.2-1-0.4-1.5-0.7
		c-0.4-0.3-0.8-0.6-1.1-1c-0.3-0.4-0.4-0.9-0.4-1.5c0-0.4,0.1-0.8,0.3-1.3c0.2-0.4,0.4-0.8,0.8-1.1c0.3-0.3,0.8-0.6,1.3-0.8
		c0.5-0.2,1.1-0.3,1.8-0.3c0.4,0,0.9,0,1.3,0.1c0.4,0.1,0.8,0.2,1.1,0.2c0.3,0.1,0.6,0.2,0.8,0.3C75.7,10.3,75.8,10.3,75.8,10.3z"/>
	<polygon class="st0" points="41.1,24.9 41.1,25 40.9,25 40.8,25 40.8,25 37.1,31.7 33.3,25 33.2,25 33.1,25 33,25 33,24.9 31,24.9 
		31,37.1 33,37.1 33,28.8 37,35.7 37.1,35.9 37.3,35.7 41.1,29 41.1,37.1 43.3,37.1 43.3,24.9 	"/>
	<path class="st0" d="M71.5,37l-2.3-2.3c0.7-1,1.2-2.3,1.2-3.7c0-3.5-2.8-6.3-6.3-6.3c-3.5,0-6.3,2.8-6.3,6.3c0,3.5,2.8,6.3,6.3,6.3
		c1.3,0,2.5-0.4,3.5-1.1l2.3,2.3L71.5,37z M64.1,35.3c-2.4,0-4.3-1.9-4.3-4.3c0-2.4,1.9-4.3,4.3-4.3s4.3,1.9,4.3,4.3
		c0,0.8-0.2,1.6-0.6,2.2L65.4,31l-1.5,1.5l2.3,2.3C65.6,35.1,64.9,35.3,64.1,35.3z"/>
	<path class="st0" d="M75,25.2c0.3,0.1,0.5,0.3,0.6,0.6c0.1,0.3,0.2,0.6,0.2,0.9c0,0.3-0.1,0.6-0.2,0.9c-0.1,0.3-0.3,0.5-0.6,0.6
		c-0.3,0.1-0.6,0.2-0.9,0.2c-0.3,0-0.6-0.1-0.9-0.2c-0.3-0.1-0.5-0.3-0.6-0.6c-0.1-0.3-0.2-0.6-0.2-0.9c0-0.3,0.1-0.6,0.2-0.9
		c0.1-0.3,0.3-0.5,0.6-0.6c0.3-0.1,0.6-0.2,0.9-0.2C74.5,25,74.8,25.1,75,25.2z M74.8,27.9c0.2-0.1,0.3-0.3,0.5-0.5
		c0.1-0.2,0.2-0.4,0.2-0.7c0-0.3-0.1-0.5-0.2-0.7c-0.1-0.2-0.3-0.3-0.5-0.5c-0.2-0.1-0.4-0.2-0.7-0.2c-0.3,0-0.5,0.1-0.7,0.2
		c-0.2,0.1-0.3,0.3-0.5,0.5c-0.1,0.2-0.2,0.4-0.2,0.7c0,0.3,0.1,0.5,0.2,0.7c0.1,0.2,0.3,0.3,0.5,0.5c0.2,0.1,0.4,0.2,0.7,0.2
		C74.4,28,74.6,28,74.8,27.9z M74.9,26.7c-0.1,0.1-0.2,0.2-0.3,0.2l0.5,0.7h-0.5L74.1,27h-0.2v0.6h-0.4v-1.8h0.8
		c0.2,0,0.4,0.1,0.5,0.2c0.1,0.1,0.2,0.3,0.2,0.4C75,26.5,74.9,26.6,74.9,26.7z M73.9,26.7h0.3c0.2,0,0.3-0.1,0.3-0.3
		c0-0.2-0.1-0.3-0.3-0.3h-0.3V26.7z"/>
	<path class="st0" d="M26,24.9H28v12.2H26V24.9z"/>
	<polygon class="st1" points="23.9,21.6 17.1,9.8 16.9,9.6 16.8,9.8 10,21.6 9.9,21.8 12.2,21.8 16.9,13.7 21.7,21.8 23.8,21.8 
		24,21.8 	"/>
</g>
</svg>
